<svg xmlns="http://www.w3.org/2000/svg" viewBox="0 0 240 80" fill="#0082CA">
  <!-- NTT Dynamic Loop Symbol -->
  <g transform="translate(10, 5)">
    <path fill-rule="evenodd" clip-rule="evenodd" d="M35 70C15.67 70 0 54.33 0 35S15.67 0 35 0s35 15.67 35 35c0 16.82-11.86 30.87-27.7 34.2V56.7C52.1 53.6 59 45.1 59 35c0-13.25-10.75-24-24-24S11 21.75 11 35c0 9.8 5.86 18.23 14.3 21.7V69.2C10.74 65.87 0 51.82 0 35c0-19.33 15.67-35 35-35s35 15.67 35 35-15.67 35-35 35z"/>
    <path fill-rule="evenodd" clip-rule="evenodd" d="M35 21c-7.73 0-14 6.27-14 14s6.27 14 14 14 14-6.27 14-14-6.27-14-14-14zm0 17c-1.66 0-3-1.34-3-3s1.34-3 3-3 3 1.34 3 3-1.34 3-3 3z"/>
  </g>
  <!-- NTT Text -->
  <text x="95" y="55" font-family="'Segoe UI', Arial, sans-serif" font-weight="900" font-size="52" letter-spacing="1" fill="#0082CA">NTT</text>
</svg>
