<svg xmlns="http://www.w3.org/2000/svg" viewBox="0 0 200 40" fill="#1428A0">
  <path d="M16.5 16.4c-3.2-.9-5.1-1.7-5.1-3.3 0-1.5 1.6-2.5 4.3-2.5 2.9 0 5.5 1.1 7.5 3.1l4.7-5.1C24.8 5.2 20.8 3.3 15.7 3.3 7.6 3.3 2 8.4 2 14.9c0 6.4 4.7 9.6 11.2 11.6 3.7 1.2 5.5 2.1 5.5 3.7 0 1.7-1.9 2.8-4.8 2.8-3.6 0-6.5-1.5-8.9-4.1l-4.9 4.8c3.2 3.9 8 5.7 13.9 5.7 8.8 0 14.8-5.1 14.8-12-.1-6.8-4.8-10-12.3-11zm31-13.1h-8.3L27.7 38.7h8.5l2.1-6.5h11.7l2.1 6.5h8.8L47.5 3.3zm-6.3 20.8l3.7-11.7 3.7 11.7h-7.4zm45-20.8h-10.1l-7.2 20.5L61.7 3.3H51.6v35.4h8.1V15.6l6.3 18.5h6l6.3-18.5v23.1h8.1V3.3zM102.5 16.4c-3.2-.9-5.1-1.7-5.1-3.3 0-1.5 1.6-2.5 4.3-2.5 2.9 0 5.5 1.1 7.5 3.1l4.7-5.1c-3.1-3.4-7.1-5.3-12.2-5.3-8.1 0-13.7 5.1-13.7 11.6 0 6.4 4.7 9.6 11.2 11.6 3.7 1.2 5.5 2.1 5.5 3.7 0 1.7-1.9 2.8-4.8 2.8-3.6 0-6.5-1.5-8.9-4.1l-4.9 4.8c3.2 3.9 8 5.7 13.9 5.7 8.8 0 14.8-5.1 14.8-12 0-6.8-4.9-10-12.4-11zm31.9-13.1v21.5c0 4.3-2.8 7.1-7.2 7.1s-7.2-2.8-7.2-7.1V3.3h-8.1v21.7c0 8.8 6.3 14 15.3 14s15.3-5.2 15.3-14V3.3h-8.1zm22.4 0h-8.1v35.4h8.1V22.2l10.4 16.5h7.2V3.3h-8.1v16.1L156.8 3.3zm36 17.5c0-8.9-6.3-14.2-15-14.2-8.8 0-15.2 5.3-15.2 14.2 0 8.9 6.4 14.2 15.2 14.2 4.4 0 8.3-1.4 11-4.1v-8.8h-11.8v6.2h4.6v2.3c-1.1.9-2.4 1.3-3.8 1.3-4.5 0-7.3-3-7.3-7.9 0-4.9 2.8-7.9 7.3-7.9 2.4 0 4.4.9 5.8 2.5l5.2-4.5c-2.9-3.2-6.6-4.5-11-4.5z"/>
</svg>
